<svg width="419" height="598" viewBox="0 0 419 598" fill="none" xmlns="http://www.w3.org/2000/svg">
<path d="M167.388 270.205C167.802 273.083 164.018 274.573 162.386 272.162C157.898 265.514 152.681 260.617 152.267 272.846C151.524 294.631 154.665 296.65 142.907 317.269C131.149 337.881 118.204 348.828 125.672 362.553C133.141 376.279 121.091 383.902 123.703 395.977C126.315 408.052 126.193 442.151 173.516 453.382C201.199 459.953 254.099 465.142 280.978 424.219C305.183 387.364 294.475 355.667 291.487 341.865C288.5 328.07 280.534 328.853 276.88 316.103C273.218 303.352 279.408 297.027 270.652 289.895C261.904 282.764 255.708 293.372 255.708 269.928C255.708 246.484 253.218 234.985 248.967 232.813C241.123 228.805 247.305 258.46 237.14 248.926C226.967 239.399 222.41 234.97 226.002 222.449C229.602 209.929 233.57 199.136 229.166 182.931C224.761 166.733 219.147 161.628 211.372 150.682C203.597 139.727 193.493 134.699 195.133 150.597C196.772 166.495 193.47 176.244 190.108 181.487C186.745 186.73 185.466 193.332 184.263 204.432C183.06 215.533 176.848 215.978 176.029 208.025C175.209 200.08 173.271 186.953 168.254 197.071C163.236 207.188 163.206 213.951 166.048 218.749C168.89 223.547 173.677 225.696 173.516 237.472C173.363 249.248 163.214 248.734 165.45 259.082C166.209 262.582 166.852 266.52 167.373 270.197L167.388 270.205Z" fill="#D94859"/>
<path d="M164.133 298.408C163.122 297.149 161.099 297.564 160.609 299.107C158.717 305.049 155.699 315.98 157.446 320.371C159.897 326.543 140.931 339.839 143.573 350.793C146.216 361.747 144.837 364.02 140.693 370.821C136.549 377.622 132.98 407.96 155.737 424.065C182.409 442.942 218.044 446.649 236.596 437.353C284.647 413.272 288.293 374.912 278.105 356.827C273.731 349.066 263.835 349.657 263.207 343.047C262.571 336.438 270.476 313.255 263.245 307.275C256.014 301.295 248.921 307.851 250.683 315.151C252.444 322.451 249.434 329.951 246.477 329.698C243.521 329.445 240.571 329.199 244.271 320.57C247.971 311.942 245.842 300.995 241.996 294.125C238.159 287.254 239.859 283.585 243.214 279.256C252.49 267.303 246.768 253.969 241.782 258.345C236.987 262.551 244.501 272.562 231.387 277.881C229.043 278.833 226.347 277.935 224.96 275.816C222.356 271.84 218.373 265.231 217.209 260.44C215.447 253.14 205.703 248.734 203.244 242.562C200.786 236.39 205.182 226.625 201.345 222.726C197.507 218.826 190.468 217.629 189.219 232.429C187.971 247.229 191.555 254.092 185.588 261.339C179.621 268.585 171.394 274.442 172.72 279.923C174.045 285.404 177.875 289.304 175.117 293.841C172.666 297.863 169.479 305.102 164.102 298.401L164.133 298.408Z" fill="#E67781"/>
<path d="M231.64 347.876C231.242 348.874 230.843 349.864 230.445 350.831C232.1 353.027 233.708 356.197 235.194 360.857C238.534 371.327 236.657 378.866 234.773 383.257C232.889 387.655 230.177 393.305 228.3 396.238C226.416 399.17 226.117 405.756 225.167 409.426C222.034 421.57 206.99 419.682 198.212 417.171C189.434 414.661 179.828 406.908 173.769 397.067C167.71 387.225 163.122 372.41 167.082 355.191C167.174 354.784 167.273 354.385 167.365 353.994C167.641 351.775 168.484 349.388 169.311 347.476C171.708 340.806 174.757 336.422 178.074 333.666C178.327 333.405 178.587 333.144 178.855 332.883C178.396 331.709 177.729 330.527 176.779 329.383C174.933 327.157 169.747 325.783 166.515 325.115C165.144 324.831 164.477 324.309 164.876 322.451C164.876 322.428 164.891 322.397 164.899 322.374L165.511 320.731C165.917 319.826 166.798 319.472 167.779 319.618C170.291 319.994 175.086 320.655 178.25 321.775C178.71 321.937 180.004 322.566 180.778 322.942C181.077 323.088 181.421 322.912 181.483 322.581C181.62 321.768 181.95 320.294 182.639 318.628C184.508 314.145 186.301 312.241 187.235 311.512C187.565 311.251 188.277 310.882 188.744 311.19L190.246 312.257C191.349 313.047 191.502 314.506 190.598 315.519C189.748 316.471 188.943 317.745 188.277 320.094C187.595 322.474 187.358 324.938 187.963 326.919C188.637 326.573 189.273 326.235 189.863 325.867C192.98 323.963 194.65 325.844 195.071 326.266C195.63 326.827 196.098 327.364 196.542 327.932C197.139 327.502 197.745 327.08 198.373 326.681C198.779 324.708 199.108 322.635 199.146 320.923C199.323 313.753 196.435 308.925 196.128 306.292C196.021 305.401 196.688 304.611 197.576 304.565L200.326 304.427C201.636 304.357 202.877 305.156 203.26 306.415C203.275 306.476 203.298 306.538 203.313 306.599L206.086 318.214C212.115 309.478 218.794 310.668 218.794 310.668L218.587 316.532C217.569 316.763 216.06 317.231 214.474 318.237C212.674 319.373 211.387 320.839 210.46 322.32C214.535 321.983 222.065 322.19 226.967 327.333C228.139 328.561 228.997 329.905 229.618 331.171C230.116 329.437 230.422 327.878 230.614 326.604C230.759 325.614 231.433 324.785 232.375 324.455L234.903 323.549C236.933 322.819 238.963 324.662 238.434 326.757C236.78 333.298 234.589 340.391 231.655 347.837L231.64 347.876Z" fill="#00393C"/>
<path d="M217.944 310.645C214.436 312.111 211.893 315.051 209.242 317.684C206.638 320.455 204.125 323.472 201.061 325.76C202.861 319.726 211.28 310.407 217.944 310.645Z" fill="#E67781"/>
<path d="M170.873 344.26C173.807 336.584 179.514 329.713 187.051 326.136C187.848 325.729 188.737 325.376 189.564 325.023C191.433 324.301 193.846 324.171 195.508 325.675C195.86 326.028 196.259 326.466 196.596 326.819C196.948 327.187 197.814 328.116 198.158 328.477C198.25 328.577 198.465 328.8 198.549 328.892C199.56 329.951 199.951 331.502 199.729 332.853C199.491 334.449 198.595 335.831 197.339 336.783C195.868 337.75 194.229 338.61 192.819 339.631C184.746 345.174 181.506 355.928 183.091 365.34C183.826 370.168 186.814 374.406 190.322 377.714C191.065 378.382 191.816 379.065 192.712 379.549C186.952 377.384 182.18 371.826 180.885 365.754C178.702 355.475 182.517 343.577 191.456 337.658C192.321 337.067 193.202 336.514 194.091 335.992C194.719 335.601 195.891 335.033 196.389 334.503C197.515 333.459 197.944 331.425 196.749 330.343C196.58 330.158 196.128 329.713 195.96 329.521C195.439 328.991 194.405 327.909 193.892 327.379C192.896 326.596 191.287 326.919 190.146 327.456C182.065 330.726 175.531 336.914 170.881 344.252L170.873 344.26Z" fill="#E67781"/>
<path d="M229.472 331.118C225.772 344.567 217.285 355.23 202.249 354.37C200.426 354.316 198.618 354.147 196.94 354.101L196.818 351.798C200.456 351.506 203.888 351.798 207.411 351.261C218.465 349.756 224.623 340.26 229.472 331.118Z" fill="#E67781"/>
<path d="M231.372 348.405C230.82 351.89 229.273 355.176 228.047 358.4L227.611 359.582C226.875 361.294 227.052 363.175 227.917 364.833C228.239 365.501 228.706 366.215 229.143 366.706L229.005 366.583C230.254 367.642 231.403 368.725 232.506 369.915C233.647 371.204 234.696 372.456 235.278 374.183C235.631 375.826 235.746 377.376 235.769 379.027C235.769 380.623 235.585 382.282 234.903 383.717C235.255 380.677 234.352 377.637 233.494 374.789C232.161 372.264 229.572 370.322 227.358 368.548C225.083 366.107 223.674 362.538 224.938 359.283C226.508 355.299 228.997 351.921 231.364 348.397L231.372 348.405Z" fill="#E67781"/>
<path d="M228.714 368.119C226.362 370.867 224.869 374.06 224.723 377.637C224.631 381.391 225.029 385.437 223.405 389.045C222.379 391.478 220.801 393.635 218.825 395.247C220.043 393.006 221.069 390.772 221.659 388.454C222.693 384.838 222.18 381.245 222.333 377.499C222.502 373.492 224.631 369.516 227.741 367.098L228.721 368.126L228.714 368.119Z" fill="#E67781"/>
<path d="M201.858 387.018C198.756 387.648 194.589 389.26 194.842 393.029C194.757 395.816 197.208 396.353 199.139 398.034C200.272 398.978 201.176 400.36 201.49 401.788C202.149 404.567 201.552 407.307 200.648 409.902C200.602 406.34 201.092 401.888 197.936 399.539C196.473 398.456 193.892 397.535 193.026 395.455C191.379 391.363 193.524 387.44 197.392 385.844C198.733 385.253 200.043 384.846 201.521 384.631L201.866 387.026L201.858 387.018Z" fill="#E67781"/>
<path d="M196.251 328.431C203.275 321.967 214.88 318.467 223.505 323.856C225.589 325.099 227.634 326.957 228.545 329.291C228.852 330.051 229.089 330.788 229.38 331.54C228.277 330.45 227.442 329.084 226.217 328.162C217.339 321.453 205.696 324.339 196.251 328.423V328.431Z" fill="#E67781"/>
<path d="M225.244 340.713C221.414 334.204 213.149 332.845 206.883 336.468C201.368 340.268 197.17 346.762 198.863 353.671C200.104 360.296 204.93 366.322 205.841 373.193C206.791 381.575 201.215 389.083 194.78 393.72C199.606 388.53 204.033 382.151 203.405 374.812C203.168 371.45 201.444 368.287 199.813 364.986C196.251 358.269 193.011 349.833 197.316 342.517C199.353 339.086 202.18 336.161 205.611 334.196C212.705 330.565 222.44 332.829 225.236 340.721L225.244 340.713Z" fill="#E67781"/>
</svg>
